<svg id="visual" viewBox="0 0 960 540" width="960" height="540" xmlns="http://www.w3.org/2000/svg" xmlns:xlink="http://www.w3.org/1999/xlink" version="1.1"><rect x="0" y="0" width="960" height="540" fill="#FEFAE0"></rect><path d="M0 183L60 188L120 98L180 236L240 129L300 190L360 238L420 132L480 125L540 159L600 250L660 85L720 191L780 84L840 105L900 89L960 224L960 541L900 541L840 541L780 541L720 541L660 541L600 541L540 541L480 541L420 541L360 541L300 541L240 541L180 541L120 541L60 541L0 541Z" fill="#faedce"></path><path d="M0 148L60 174L120 151L180 175L240 281L300 257L360 159L420 170L480 232L540 236L600 212L660 194L720 215L780 216L840 231L900 175L960 171L960 541L900 541L840 541L780 541L720 541L660 541L600 541L540 541L480 541L420 541L360 541L300 541L240 541L180 541L120 541L60 541L0 541Z" fill="#e8e3c0"></path><path d="M0 305L60 244L120 259L180 276L240 218L300 298L360 222L420 223L480 310L540 290L600 310L660 272L720 295L780 245L840 255L900 218L960 230L960 541L900 541L840 541L780 541L720 541L660 541L600 541L540 541L480 541L420 541L360 541L300 541L240 541L180 541L120 541L60 541L0 541Z" fill="#d4d9b3"></path><path d="M0 301L60 317L120 373L180 269L240 372L300 369L360 351L420 289L480 294L540 330L600 350L660 313L720 309L780 263L840 303L900 330L960 261L960 541L900 541L840 541L780 541L720 541L660 541L600 541L540 541L480 541L420 541L360 541L300 541L240 541L180 541L120 541L60 541L0 541Z" fill="#ccd5ae"></path><path d="M0 407L60 364L120 418L180 419L240 379L300 330L360 404L420 394L480 334L540 421L600 367L660 366L720 323L780 412L840 327L900 339L960 322L960 541L900 541L840 541L780 541L720 541L660 541L600 541L540 541L480 541L420 541L360 541L300 541L240 541L180 541L120 541L60 541L0 541Z" fill="#d4d9b3"></path><path d="M0 430L60 446L120 426L180 410L240 453L300 432L360 398L420 395L480 389L540 430L600 463L660 395L720 381L780 435L840 398L900 427L960 446L960 541L900 541L840 541L780 541L720 541L660 541L600 541L540 541L480 541L420 541L360 541L300 541L240 541L180 541L120 541L60 541L0 541Z" fill="#e8e3c0"></path><path d="M0 476L60 495L120 465L180 466L240 483L300 461L360 448L420 482L480 456L540 448L600 468L660 472L720 440L780 441L840 450L900 458L960 465L960 541L900 541L840 541L780 541L720 541L660 541L600 541L540 541L480 541L420 541L360 541L300 541L240 541L180 541L120 541L60 541L0 541Z" fill="#faedce"></path></svg>